<?xml version="1.0" encoding="utf-8"?> <svg version="1.1" id="Layer_1" xmlns="http://www.w3.org/2000/svg" xmlns:xlink="http://www.w3.org/1999/xlink" x="0px" y="0px" viewBox="0 0 500.1 500" style="enable-background:new 0 0 500.1 500;" xml:space="preserve"> <style type="text/css"> .st0{fill:#1f75fe;} .st1{fill:#00fa9a;} </style> <g id="XMLID_21_"> <g> <path class="st0" d="M353.3,422.5h15.5c33.1,0,60-26.9,60-60s-26.9-60-60-60h-0.2c0-12.2,0-21.4,0-21.9l0-0.5H117.7l0,0.5 c0,1.4-0.1,78.6-0.1,81.9c0,40.8,19.5,77.1,49.8,100H98.1v30h290v-30h-69.3C333,451.8,344.8,438.2,353.3,422.5z M368.6,362.5 c0-1.3,0-14.5,0-30h0.2c16.5,0,30,13.5,30,30s-13.5,30-30,30H365C367.4,382.9,368.6,372.9,368.6,362.5z"/> </g> </g> <g> <path class="st1" d="M152.9,262.2c-16.6-4.5-30.2-17.1-35.7-34L72,89.1c-1.8-5.6-2.6-11.2-2.5-16.8L40.5,92.9 c-12.9,9.2-16,27.2-6.8,40.2l84.5,119.3c5.6,7.9,14.5,12.1,23.6,12.1C145.6,264.4,149.3,263.7,152.9,262.2z M64.4,123.9l-10.6-5.1 l-2.2,1.6l5.9,8.4l-4.9,3.4l-14.7-20.9l4.9-3.4l5.8,8.2l1.7-1.2l-1.2-11.4l6-4.3l0.2,14l15.1,6.5L64.4,123.9z"/> <path class="st1" d="M112.4,45.7C97.4,50.6,89,66.9,93.9,82l45.2,139c3.9,12.1,15.3,19.9,27.5,19.9c2.9,0,5.9-0.5,8.8-1.4l-0.2,0 c-18-7.9-30.6-25.8-30.6-46.9V46.4c0-4,0.7-8,1.6-11.8L112.4,45.7z M124.2,83.6l-8.8-7.8l-2.6,0.9l3.4,9.7l-5.6,1.9l-8.4-24.2 l5.6-1.9l3.3,9.5L113,71l2-11.3l7-2.4l-3.7,13.5l12.7,10.4L124.2,83.6z"/> <polyline class="st1" points="211.4,-8.3 211.4,-8.3 211.6,-8.3 	"/> <path class="st1" d="M167.7,46.4v146.2c0,15.3,11.8,27.3,26.9,28.1c-4.4-4.1-7.9-9-10.8-14.5c-6.3-12.4-7.4-26.4-3.1-39.6 l45.2-139.3c1.2-3.6,2.7-6,4.5-10.3h-34.1C180.5,17,167.7,30.6,167.7,46.4z M204.7,58.8h-7.2l-5.7-10.1h-3.9v10.1h-5.8V32.9h5.8V43 h3.1l5.6-10.1h7.4l-7.9,11.8L204.7,58.8z"/> <path class="st1" d="M247.8,34.8l-45.2,139c-4.9,15,3.4,31.3,18.3,36.2c-2.4-4.7-4.1-9.8-5-15.1c-2.3-13.7,0.8-27.4,8.8-38.7 l84.5-119.3c2.6-3.6,5.6-6.8,8.9-9.6l-34-11c-2.9-1-5.9-1.4-8.8-1.4C263.2,14.9,251.8,22.6,247.8,34.8z M278.7,59.4l-5.6-2.1 l0.3-5.2l-7.6-2.8l-3.1,4.2l-5.6-2.1l16.6-21.2l6,2.2L278.7,59.4z"/> <polygon class="st1" points="273.8,47.4 274.4,37.8 274.3,37.8 268.7,45.5 	"/> <path class="st1" d="M445.9,98.5l-77.7-55.1c-5-3.6-10.8-5.3-16.6-5.3c-9,0-18,4.2-23.6,12.1l-84.5,119.2 c-9.2,12.9-6.1,31,6.8,40.2l77.7,55.1c5,3.6,10.8,5.3,16.6,5.3c9,0,18-4.2,23.6-12.1l84.5-119.2 C461.9,125.7,458.9,107.7,445.9,98.5z M352.2,50l5.2,3.7l-8.1,25.7l-4.9-3.5l1.7-4.9l-6.6-4.7l-4.1,3.2l-4.9-3.5L352.2,50z M376.1,114.1c28.4,69.9-6.9,89.1-23.8,83.8c-9.6-3.1-13.9-9.5-15.4-16.9l-11,18.2l-13.6-9.6l12.9-15.6c-7.2,0.8-14.6-1.9-20.4-9.7 C294.3,150,300.8,110.4,376.1,114.1z"/> <polygon class="st1" points="347.7,66.5 350.8,57.5 350.7,57.5 343.3,63.4 	"/> </g> </svg>